<svg version="1.1" viewBox="0.0 0.0 831.9265091863517 412.96062992125985" fill="none" stroke="none" stroke-linecap="square" stroke-miterlimit="10" xmlns:xlink="http://www.w3.org/1999/xlink" xmlns="http://www.w3.org/2000/svg"><clipPath id="p.0"><path d="m0 0l831.9265 0l0 412.96063l-831.9265 0l0 -412.96063z" clip-rule="nonzero"/></clipPath><g clip-path="url(#p.0)"><path fill="#000000" fill-opacity="0.0" d="m0 0l831.9265 0l0 412.96063l-831.9265 0z" fill-rule="evenodd"/><path fill="#000000" d="m587.6142 174.87138l212.28345 0l0 11.370087l-212.28345 0z" fill-rule="evenodd"/><path stroke="#000000" stroke-width="1.0" stroke-linejoin="round" stroke-linecap="butt" d="m587.6142 174.87138l212.28345 0l0 11.370087l-212.28345 0z" fill-rule="evenodd"/><path fill="#000000" d="m610.49603 131.3517l166.51971 0l0 274.48822l-166.51971 0z" fill-rule="evenodd"/><path stroke="#000000" stroke-width="1.0" stroke-linejoin="round" stroke-linecap="butt" d="m610.49603 131.3517l166.51971 0l0 274.48822l-166.51971 0z" fill-rule="evenodd"/><path fill="#000000" d="m557.4218 156.2216l26.551208 -8.125977l17.385803 56.7874l-26.551147 8.125992z" fill-rule="evenodd"/><path stroke="#000000" stroke-width="1.0" stroke-linejoin="round" stroke-linecap="butt" d="m557.4218 156.2216l26.551208 -8.125977l17.385803 56.7874l-26.551147 8.125992z" fill-rule="evenodd"/><path fill="#000000" d="m788.1738 154.5255l27.118103 -5.952759l12.75592 58.015747l-27.118103 5.952759z" fill-rule="evenodd"/><path stroke="#000000" stroke-width="1.0" stroke-linejoin="round" stroke-linecap="butt" d="m788.1738 154.5255l27.118103 -5.952759l12.75592 58.015747l-27.118103 5.952759z" fill-rule="evenodd"/><path fill="#000000" d="m794.2237 336.85303l27.779541 0l0 59.40158l-27.779541 0z" fill-rule="evenodd"/><path stroke="#000000" stroke-width="1.0" stroke-linejoin="round" stroke-linecap="butt" d="m794.2237 336.85303l27.779541 0l0 59.40158l-27.779541 0z" fill-rule="evenodd"/><path fill="#000000" d="m565.50946 336.85303l27.779541 0l0 59.40158l-27.779541 0z" fill-rule="evenodd"/><path stroke="#000000" stroke-width="1.0" stroke-linejoin="round" stroke-linecap="butt" d="m565.50946 336.85303l27.779541 0l0 59.40158l-27.779541 0z" fill-rule="evenodd"/><path fill="#000000" fill-opacity="0.0" d="m4.5084586 368.36334l573.4803 -187.37009" fill-rule="evenodd"/><path stroke="#0000ff" stroke-width="2.0" stroke-linejoin="round" stroke-linecap="butt" d="m4.5084586 368.36334l573.4803 -187.37009" fill-rule="evenodd"/><path fill="#000000" fill-opacity="0.0" d="m5.96063E-4 360.8562l807.49603 -180.34645" fill-rule="evenodd"/><path stroke="#0000ff" stroke-width="2.0" stroke-linejoin="round" stroke-linecap="butt" d="m5.96063E-4 360.8562l807.49603 -180.34645" fill-rule="evenodd"/><path fill="#000000" fill-opacity="0.0" d="m578.50134 181.0l0 -172.0" fill-rule="evenodd"/><path stroke="#ff9900" stroke-width="2.0" stroke-linejoin="round" stroke-linecap="butt" d="m578.50134 181.0l0 -172.0" fill-rule="evenodd"/><path fill="#000000" fill-opacity="0.0" d="m807.0 181.0l0 -180.50394" fill-rule="evenodd"/><path stroke="#ff9900" stroke-width="2.0" stroke-linejoin="round" stroke-linecap="butt" d="m807.0 181.0l0 -180.50394" fill-rule="evenodd"/><path fill="#000000" fill-opacity="0.0" d="m579.0 182.0l-66.11023 -169.95276" fill-rule="evenodd"/><path stroke="#00ff00" stroke-width="1.0" stroke-linejoin="round" stroke-linecap="butt" d="m579.0 182.0l-66.11023 -169.95276" fill-rule="evenodd"/><path fill="#000000" fill-opacity="0.0" d="m80.71391 331.85303l0 22.48819" fill-rule="evenodd"/><path stroke="#000000" stroke-width="1.0" stroke-linejoin="round" stroke-linecap="butt" d="m80.71391 331.85303l0 22.48819" fill-rule="evenodd"/><path fill="#000000" fill-opacity="0.0" d="m69.99475 342.96863l21.448822 0.28347778" fill-rule="evenodd"/><path stroke="#000000" stroke-width="1.0" stroke-linejoin="round" stroke-linecap="butt" d="m69.99475 342.96863l21.448822 0.28347778" fill-rule="evenodd"/><path fill="#000000" fill-opacity="0.0" d="m807.50134 181.50131l-46.86615 -173.19685" fill-rule="evenodd"/><path stroke="#00ff00" stroke-width="1.0" stroke-linejoin="round" stroke-linecap="butt" d="m807.50134 181.50131l-46.86615 -173.19685" fill-rule="evenodd"/><path fill="#000000" fill-opacity="0.0" d="m580.0158 17.0729l0 0c-20.955261 -0.13646507 -41.378906 6.5920963 -58.149597 19.157381l57.52484 76.77759z" fill-rule="evenodd"/><path fill="#000000" fill-opacity="0.0" d="m580.0158 17.0729l0 0c-20.955261 -0.13646507 -41.378906 6.5920963 -58.149597 19.157381" fill-rule="evenodd"/><path stroke="#000000" stroke-width="1.0" stroke-linejoin="round" stroke-linecap="butt" d="m580.0158 17.0729l0 0c-20.955261 -0.13646507 -41.378906 6.5920963 -58.149597 19.157381" fill-rule="evenodd"/><path fill="#000000" d="m587.6142 360.86877l212.28345 0l0 11.370056l-212.28345 0z" fill-rule="evenodd"/><path stroke="#000000" stroke-width="1.0" stroke-linejoin="round" stroke-linecap="butt" d="m587.6142 360.86877l212.28345 0l0 11.370056l-212.28345 0z" fill-rule="evenodd"/><path fill="#000000" fill-opacity="0.0" d="m807.521 17.452402l0 0c-14.128906 0.6147232 -27.89563 4.660492 -40.110596 11.787718l43.896667 75.23232z" fill-rule="evenodd"/><path fill="#000000" fill-opacity="0.0" d="m807.521 17.452402l0 0c-14.128906 0.6147232 -27.89563 4.660492 -40.110596 11.787718" fill-rule="evenodd"/><path stroke="#000000" stroke-width="1.0" stroke-linejoin="round" stroke-linecap="butt" d="m807.521 17.452402l0 0c-14.128906 0.6147232 -27.89563 4.660492 -40.110596 11.787718" fill-rule="evenodd"/><path fill="#ffffff" d="m557.42255 170.34961l12.59845 -4.4409485l0 0l-12.59845 4.4409485l4.440979 12.598419l0 0z" fill-rule="evenodd"/><path stroke="#ff0000" stroke-width="1.0" stroke-linejoin="round" stroke-linecap="butt" d="m557.42255 170.34961l12.59845 -4.4409485l0 0l-12.59845 4.4409485l4.440979 12.598419l0 0z" fill-rule="evenodd"/><path fill="#000000" fill-opacity="0.0" d="m531.7139 26.0l33.795288 0l0 33.6063l-33.795288 0z" fill-rule="evenodd"/><path fill="#000000" d="m552.72955 46.771873l2.390625 0q-0.90625 2.875 -1.671875 6.921875q0.90625 5.015625 1.671875 6.90625l-2.328125 0q-0.5625 -1.296875 -0.84375 -2.53125q-1.078125 2.84375 -4.515625 2.84375q-2.609375 0 -4.203125 -1.953125q-1.578125 -1.953125 -1.578125 -5.296875q0 -3.4375 1.59375 -5.3125q1.59375 -1.890625 4.21875 -1.890625q1.625 0 2.65625 0.65625q1.03125 0.65625 1.921875 2.0q0.09375 -0.453125 0.6875 -2.34375zm-4.875 1.625q-1.671875 0 -2.65625 1.359375q-0.96875 1.359375 -0.96875 3.90625q0 2.484375 0.921875 3.90625q0.921875 1.421875 2.578125 1.421875q1.609375 0 2.6875 -1.390625q1.09375 -1.40625 1.09375 -4.046875q0 -2.546875 -1.015625 -3.84375q-1.015625 -1.3125 -2.640625 -1.3125z" fill-rule="nonzero"/><path fill="#000000" fill-opacity="0.0" d="m774.0026 28.002625l28.818909 0l0 33.6063l-28.818909 0z" fill-rule="evenodd"/><path fill="#000000" d="m787.1589 60.852623l0 7.046875l-2.328125 0l0 -18.390625q0 -2.203125 0.578125 -3.4375q0.59375 -1.25 2.03125 -2.0625q1.453125 -0.8125 3.234375 -0.8125q2.609375 0 3.953125 1.5q1.359375 1.5 1.359375 3.296875q0 1.734375 -1.09375 2.8125q-1.09375 1.0625 -2.5 1.3125q2.265625 0.21875 3.5 1.625q1.234375 1.40625 1.234375 3.453125q0 2.21875 -1.453125 3.96875q-1.453125 1.75 -4.203125 1.75q-2.8125 0 -4.3125 -2.0625zm2.0625 -9.5q2.390625 0 3.484375 -0.828125q1.09375 -0.828125 1.09375 -2.40625q0 -1.28125 -0.9375 -2.140625q-0.921875 -0.859375 -2.3125 -0.859375q-1.203125 0 -2.09375 0.640625q-0.890625 0.640625 -1.09375 1.421875q-0.203125 0.78125 -0.203125 2.734375l0 5.25q0 2.234375 0.3125 3.296875q0.3125 1.046875 1.328125 1.890625q1.03125 0.84375 2.375 0.84375q1.625 0 2.5625 -1.109375q0.953125 -1.109375 0.953125 -2.75q0 -1.359375 -0.703125 -2.421875q-0.6875 -1.078125 -1.71875 -1.46875q-1.015625 -0.390625 -2.703125 -0.390625l-0.34375 0l0 -1.703125z" fill-rule="nonzero"/><path fill="#ffffff" d="m788.1732 167.89816l12.59845 -4.4409485l0 0l-12.59845 4.4409485l4.440918 12.598419l0 0z" fill-rule="evenodd"/><path stroke="#ff0000" stroke-width="1.0" stroke-linejoin="round" stroke-linecap="butt" d="m788.1732 167.89816l12.59845 -4.4409485l0 0l-12.59845 4.4409485l4.440918 12.598419l0 0z" fill-rule="evenodd"/></g></svg>