<svg version="1.1" viewBox="0.0 0.0 484.501312335958 559.501312335958" fill="none" stroke="none" stroke-linecap="square" stroke-miterlimit="10" xmlns:xlink="http://www.w3.org/1999/xlink" xmlns="http://www.w3.org/2000/svg"><clipPath id="p.0"><path d="m0 0l484.5013 0l0 559.50134l-484.5013 0l0 -559.50134z" clip-rule="nonzero"/></clipPath><g clip-path="url(#p.0)"><path fill="#000000" fill-opacity="0.0" d="m0 0l484.5013 0l0 559.50134l-484.5013 0z" fill-rule="evenodd"/><path fill="#d9d9d9" d="m1.5013124 516.0079l118.42714 0l0 -348.00415l333.4469 0l0 -117.00374l-451.87402 0z" fill-rule="evenodd"/><path stroke="#000000" stroke-width="3.0" stroke-linejoin="round" stroke-linecap="butt" d="m1.5013124 516.0079l118.42714 0l0 -348.00415l333.4469 0l0 -117.00374l-451.87402 0z" fill-rule="evenodd"/><path fill="#000000" fill-opacity="0.0" d="m-47.997375 516.0079l228.0 0l0 41.984253l-228.0 0z" fill-rule="evenodd"/><path fill="#000000" d="m13.128204 531.5297l7.046875 0q2.375 0 3.625 0.359375q1.6875 0.5 2.875 1.765625q1.203125 1.25 1.828125 3.078125q0.625 1.828125 0.625 4.515625q0 2.359375 -0.578125 4.0625q-0.71875 2.078125 -2.046875 3.375q-1.0 0.96875 -2.703125 1.515625q-1.28125 0.40625 -3.421875 0.40625l-7.25 0l0 -19.078125zm3.859375 3.21875l0 12.640625l2.875 0q1.609375 0 2.328125 -0.171875q0.9375 -0.234375 1.546875 -0.796875q0.625 -0.5625 1.015625 -1.84375q0.390625 -1.28125 0.390625 -3.5q0 -2.203125 -0.390625 -3.390625q-0.390625 -1.1875 -1.09375 -1.84375q-0.703125 -0.671875 -1.78125 -0.90625q-0.8125 -0.1875 -3.15625 -0.1875l-1.734375 0zm15.40654 15.859375l0 -19.078125l14.15625 0l0 3.21875l-10.296875 0l0 4.234375l9.578125 0l0 3.21875l-9.578125 0l0 5.1875l10.65625 0l0 3.21875l-14.515625 0zm4.5 -20.515625l1.796875 -3.890625l4.09375 0l-3.578125 3.890625l-2.3125 0zm13.2795105 20.515625l0 -19.078125l6.1875 0q3.515625 0 4.578125 0.28125q1.640625 0.4375 2.75 1.875q1.109375 1.4375 1.109375 3.703125q0 1.765625 -0.640625 2.96875q-0.640625 1.1875 -1.625 1.875q-0.984375 0.6875 -2.0 0.90625q-1.375 0.265625 -4.0 0.265625l-2.5 0l0 7.203125l-3.859375 0zm3.859375 -15.859375l0 5.421875l2.109375 0q2.265625 0 3.03125 -0.296875q0.78125 -0.296875 1.21875 -0.9375q0.4375 -0.640625 0.4375 -1.484375q0 -1.046875 -0.625 -1.71875q-0.609375 -0.671875 -1.546875 -0.84375q-0.6875 -0.140625 -2.765625 -0.140625l-1.859375 0zm31.12326 15.859375l-4.1875 0l-1.65625 -4.328125l-7.640625 0l-1.5625 4.328125l-4.09375 0l7.4375 -19.078125l4.0625 0l7.640625 19.078125zm-7.09375 -7.546875l-2.625 -7.078125l-2.578125 7.078125l5.203125 0zm9.15654 7.546875l0 -19.078125l8.109375 0q3.0625 0 4.4375 0.515625q1.390625 0.515625 2.21875 1.828125q0.84375 1.3125 0.84375 3.0q0 2.15625 -1.265625 3.5625q-1.265625 1.390625 -3.78125 1.75q1.25 0.734375 2.0625 1.609375q0.8125 0.859375 2.203125 3.09375l2.328125 3.71875l-4.609375 0l-2.78125 -4.15625q-1.484375 -2.21875 -2.03125 -2.796875q-0.546875 -0.578125 -1.171875 -0.796875q-0.609375 -0.21875 -1.921875 -0.21875l-0.78125 0l0 7.96875l-3.859375 0zm3.859375 -11.015625l2.84375 0q2.765625 0 3.453125 -0.234375q0.703125 -0.234375 1.09375 -0.796875q0.390625 -0.578125 0.390625 -1.4375q0 -0.96875 -0.515625 -1.546875q-0.515625 -0.59375 -1.453125 -0.75q-0.46875 -0.078125 -2.8125 -0.078125l-3.0 0l0 4.84375zm19.672165 11.015625l0 -15.859375l-5.65625 0l0 -3.21875l15.15625 0l0 3.21875l-5.640625 0l0 15.859375l-3.859375 0z" fill-rule="nonzero"/><path fill="#000000" fill-opacity="0.0" d="m453.37534 -10.498688l35.62204 0l0 41.984253l-35.62204 0z" fill-rule="evenodd"/><path fill="#000000" d="m481.51596 24.10131l-4.1875 0l-1.65625 -4.328125l-7.640625 0l-1.5625 4.328125l-4.09375 0l7.4375 -19.078125l4.0625 0l7.640625 19.078125zm-7.09375 -7.546875l-2.625 -7.078125l-2.578125 7.078125l5.203125 0z" fill-rule="nonzero"/><path fill="#000000" d="m464.32846 56.10131l0 -19.078125l8.109375 0q3.0625 0 4.4375 0.515625q1.390625 0.515625 2.21875 1.828125q0.84375 1.3125 0.84375 3.0q0 2.15625 -1.265625 3.5625q-1.265625 1.390625 -3.78125 1.75q1.25 0.734375 2.0625 1.609375q0.8125 0.859375 2.203125 3.09375l2.328125 3.71875l-4.609375 0l-2.78125 -4.15625q-1.484375 -2.21875 -2.03125 -2.796875q-0.546875 -0.578125 -1.171875 -0.796875q-0.609375 -0.21875 -1.921875 -0.21875l-0.78125 0l0 7.96875l-3.859375 0zm3.859375 -11.015625l2.84375 0q2.765625 0 3.453125 -0.234375q0.703125 -0.234375 1.09375 -0.796875q0.390625 -0.578125 0.390625 -1.4375q0 -0.96875 -0.515625 -1.546875q-0.515625 -0.59375 -1.453125 -0.75q-0.46875 -0.078125 -2.8125 -0.078125l-3.0 0l0 4.84375z" fill-rule="nonzero"/><path fill="#000000" d="m464.32846 88.10131l0 -19.078125l8.109375 0q3.0625 0 4.4375 0.515625q1.390625 0.515625 2.21875 1.828125q0.84375 1.3125 0.84375 3.0q0 2.15625 -1.265625 3.5625q-1.265625 1.390625 -3.78125 1.75q1.25 0.734375 2.0625 1.609375q0.8125 0.859375 2.203125 3.09375l2.328125 3.71875l-4.609375 0l-2.78125 -4.15625q-1.484375 -2.21875 -2.03125 -2.796875q-0.546875 -0.578125 -1.171875 -0.796875q-0.609375 -0.21875 -1.921875 -0.21875l-0.78125 0l0 7.96875l-3.859375 0zm3.859375 -11.015625l2.84375 0q2.765625 0 3.453125 -0.234375q0.703125 -0.234375 1.09375 -0.796875q0.390625 -0.578125 0.390625 -1.4375q0 -0.96875 -0.515625 -1.546875q-0.515625 -0.59375 -1.453125 -0.75q-0.46875 -0.078125 -2.8125 -0.078125l-3.0 0l0 4.84375z" fill-rule="nonzero"/><path fill="#000000" d="m469.3115 120.10132l0 -19.078125l3.84375 0l0 19.078125l-3.84375 0z" fill-rule="nonzero"/><path fill="#000000" d="m469.18784 152.10132l-6.828125 -19.078125l4.1875 0l4.828125 14.125l4.671875 -14.125l4.078125 0l-6.828125 19.078125l-4.109375 0z" fill-rule="nonzero"/><path fill="#000000" d="m464.31284 184.10132l0 -19.078125l14.15625 0l0 3.21875l-10.296875 0l0 4.234375l9.578125 0l0 3.21875l-9.578125 0l0 5.1875l10.65625 0l0 3.21875l-14.515625 0zm4.5 -20.515625l1.796875 -3.890625l4.09375 0l-3.578125 3.890625l-2.3125 0z" fill-rule="nonzero"/><path fill="#000000" d="m464.31284 216.10132l0 -19.078125l14.15625 0l0 3.21875l-10.296875 0l0 4.234375l9.578125 0l0 3.21875l-9.578125 0l0 5.1875l10.65625 0l0 3.21875l-14.515625 0z" fill-rule="nonzero"/><path fill="#000000" d="m33.122223 479.86795l48.459496 0l0 3.3257751l-48.459496 0z" fill-rule="evenodd"/><path fill="#000000" d="m33.374016 423.23746l48.459488 0l0 3.3257751l-48.459488 0z" fill-rule="evenodd"/><path fill="#ffffff" d="m38.367893 413.57318l37.96815 0l0 78.443756l-37.96815 0z" fill-rule="evenodd"/><path stroke="#000000" stroke-width="1.0" stroke-linejoin="round" stroke-linecap="butt" d="m38.367893 413.57318l37.96815 0l0 78.443756l-37.96815 0z" fill-rule="evenodd"/><path fill="#000000" d="m29.050406 417.90787l6.7669125 0l0 13.984955l-6.7669125 0z" fill-rule="evenodd"/><path fill="#000000" d="m29.050406 474.53836l6.7669125 0l0 13.984955l-6.7669125 0z" fill-rule="evenodd"/><path fill="#000000" d="m78.88601 474.53836l6.7669144 0l0 13.984955l-6.7669144 0z" fill-rule="evenodd"/><path fill="#000000" d="m78.88601 417.90787l6.7669144 0l0 13.984955l-6.7669144 0z" fill-rule="evenodd"/><path fill="#000000" d="m49.029713 430.39868l11.865704 0l0 14.46756l-11.865704 0z" fill-rule="evenodd"/><path fill="#000000" fill-opacity="0.0" d="m54.962566 430.39868l0 -5.507965l-19.146694 0" fill-rule="evenodd"/><path stroke="#000000" stroke-width="2.0" stroke-linejoin="round" stroke-linecap="butt" d="m54.962566 430.39868l0 -5.507965l-19.146694 0" fill-rule="evenodd"/><path fill="#000000" fill-opacity="0.0" d="m54.962566 430.39868l0 -5.507965l23.941235 0" fill-rule="evenodd"/><path stroke="#000000" stroke-width="2.0" stroke-linejoin="round" stroke-linecap="butt" d="m54.962566 430.39868l0 -5.507965l23.941235 0" fill-rule="evenodd"/><path fill="#4a86e8" d="m35.81557 454.71585l6.7669144 0l0 13.984955l-6.7669144 0z" fill-rule="evenodd"/><path fill="#4a86e8" d="m72.1156 454.71585l6.7669144 0l0 13.984955l-6.7669144 0z" fill-rule="evenodd"/><path fill="#4a86e8" d="m64.34414 410.35846l0 6.7669373l-13.984951 0l0 -6.7669373z" fill-rule="evenodd"/><path fill="#000000" d="m45.530853 461.70483l23.636986 0l0 13.407928l-23.636986 0z" fill-rule="evenodd"/><path fill="#000000" fill-opacity="0.0" d="m57.349346 475.11276l0 6.4207153l-21.53872 0" fill-rule="evenodd"/><path stroke="#000000" stroke-width="1.0" stroke-linejoin="round" stroke-linecap="butt" d="m57.349346 475.11276l0 6.4207153l-21.53872 0" fill-rule="evenodd"/><path fill="#000000" fill-opacity="0.0" d="m57.349346 475.11276l0 6.4207153l21.538715 0" fill-rule="evenodd"/><path stroke="#000000" stroke-width="1.0" stroke-linejoin="round" stroke-linecap="butt" d="m57.349346 475.11276l0 6.4207153l21.538715 0" fill-rule="evenodd"/><path fill="#000000" d="m53.968513 480.91272l0 0c0 -1.8686218 1.5148239 -3.3834534 3.3834534 -3.3834534l0 0c0.8973503 0 1.757946 0.35647583 2.3924675 0.9909973c0.6345215 0.6345215 0.9909897 1.4951172 0.9909897 2.392456l0 0c0 1.8686523 -1.5148239 3.3834534 -3.3834572 3.3834534l0 0c-1.8686295 0 -3.3834534 -1.514801 -3.3834534 -3.3834534z" fill-rule="evenodd"/></g></svg>