<svg version="1.1" viewBox="0.0 0.0 309.68503937007875 376.2283464566929" fill="none" stroke="none" stroke-linecap="square" stroke-miterlimit="10" xmlns:xlink="http://www.w3.org/1999/xlink" xmlns="http://www.w3.org/2000/svg"><clipPath id="p.0"><path d="m0 0l309.68503 0l0 376.22833l-309.68503 0l0 -376.22833z" clip-rule="nonzero"/></clipPath><g clip-path="url(#p.0)"><path fill="#000000" fill-opacity="0.0" d="m0 0l309.68503 0l0 376.22833l-309.68503 0z" fill-rule="evenodd"/><path fill="#ffffff" d="m0 57.136482l302.99213 0l0 282.99213l-302.99213 0z" fill-rule="evenodd"/><path stroke="#000000" stroke-width="2.0" stroke-linejoin="round" stroke-linecap="butt" d="m0 57.136482l302.99213 0l0 282.99213l-302.99213 0z" fill-rule="evenodd"/><path fill="#000000" fill-opacity="0.0" d="m82.55643 42.010498l0 39.338585" fill-rule="evenodd"/><path stroke="#000000" stroke-width="2.0" stroke-linejoin="round" stroke-linecap="butt" d="m82.55643 42.010498l0 39.338585" fill-rule="evenodd"/><path fill="#000000" fill-opacity="0.0" d="m13.328084 81.34908l138.4567 0" fill-rule="evenodd"/><path stroke="#000000" stroke-width="2.0" stroke-linejoin="round" stroke-linecap="butt" d="m13.328084 81.34908l138.4567 0" fill-rule="evenodd"/><path fill="#000000" fill-opacity="0.0" d="m151.78477 67.69554l0 27.307083" fill-rule="evenodd"/><path stroke="#000000" stroke-width="2.0" stroke-linejoin="round" stroke-linecap="butt" d="m151.78477 67.69554l0 27.307083" fill-rule="evenodd"/><path fill="#000000" fill-opacity="0.0" d="m13.328084 67.69554l0 27.307083" fill-rule="evenodd"/><path stroke="#000000" stroke-width="2.0" stroke-linejoin="round" stroke-linecap="butt" d="m13.328084 67.69554l0 27.307083" fill-rule="evenodd"/><path fill="#000000" fill-opacity="0.0" d="m221.01312 157.15224l0 -75.2756" fill-rule="evenodd"/><path stroke="#0000ff" stroke-width="2.0" stroke-linejoin="round" stroke-linecap="butt" d="m221.01312 157.15224l0 -75.2756" fill-rule="evenodd"/><path fill="#000000" fill-opacity="0.0" d="m290.24146 81.86614l-138.45668 0" fill-rule="evenodd"/><path stroke="#0000ff" stroke-width="2.0" stroke-linejoin="round" stroke-linecap="butt" d="m290.24146 81.86614l-138.45668 0" fill-rule="evenodd"/><path fill="#000000" fill-opacity="0.0" d="m151.78477 95.519684l0 -27.307083" fill-rule="evenodd"/><path stroke="#0000ff" stroke-width="2.0" stroke-linejoin="round" stroke-linecap="butt" d="m151.78477 95.519684l0 -27.307083" fill-rule="evenodd"/><path fill="#000000" fill-opacity="0.0" d="m290.24146 95.519684l0 -27.307083" fill-rule="evenodd"/><path stroke="#0000ff" stroke-width="2.0" stroke-linejoin="round" stroke-linecap="butt" d="m290.24146 95.519684l0 -27.307083" fill-rule="evenodd"/><path fill="#000000" fill-opacity="0.0" d="m255.6273 157.62204l-69.22835 0" fill-rule="evenodd"/><path stroke="#0000ff" stroke-width="2.0" stroke-linejoin="round" stroke-linecap="butt" d="m255.6273 157.62204l-69.22835 0" fill-rule="evenodd"/><path fill="#000000" fill-opacity="0.0" d="m186.39896 171.27559l0 -27.307083" fill-rule="evenodd"/><path stroke="#0000ff" stroke-width="2.0" stroke-linejoin="round" stroke-linecap="butt" d="m186.39896 171.27559l0 -27.307083" fill-rule="evenodd"/><path fill="#000000" fill-opacity="0.0" d="m255.6273 171.27559l0 -27.307083" fill-rule="evenodd"/><path stroke="#0000ff" stroke-width="2.0" stroke-linejoin="round" stroke-linecap="butt" d="m255.6273 171.27559l0 -27.307083" fill-rule="evenodd"/><path fill="#000000" fill-opacity="0.0" d="m117.50131 234.36745l0 -75.27559" fill-rule="evenodd"/><path stroke="#00ff00" stroke-width="2.0" stroke-linejoin="round" stroke-linecap="butt" d="m117.50131 234.36745l0 -75.27559" fill-rule="evenodd"/><path fill="#000000" fill-opacity="0.0" d="m186.72966 159.08136l-138.4567 0" fill-rule="evenodd"/><path stroke="#00ff00" stroke-width="2.0" stroke-linejoin="round" stroke-linecap="butt" d="m186.72966 159.08136l-138.4567 0" fill-rule="evenodd"/><path fill="#000000" fill-opacity="0.0" d="m48.272964 172.73491l0 -27.307083" fill-rule="evenodd"/><path stroke="#00ff00" stroke-width="2.0" stroke-linejoin="round" stroke-linecap="butt" d="m48.272964 172.73491l0 -27.307083" fill-rule="evenodd"/><path fill="#000000" fill-opacity="0.0" d="m186.72966 172.73491l0 -27.307083" fill-rule="evenodd"/><path stroke="#00ff00" stroke-width="2.0" stroke-linejoin="round" stroke-linecap="butt" d="m186.72966 172.73491l0 -27.307083" fill-rule="evenodd"/><path fill="#000000" fill-opacity="0.0" d="m152.11548 234.83727l-69.22834 0" fill-rule="evenodd"/><path stroke="#00ff00" stroke-width="2.0" stroke-linejoin="round" stroke-linecap="butt" d="m152.11548 234.83727l-69.22834 0" fill-rule="evenodd"/><path fill="#000000" fill-opacity="0.0" d="m82.88714 248.49081l0 -27.307083" fill-rule="evenodd"/><path stroke="#00ff00" stroke-width="2.0" stroke-linejoin="round" stroke-linecap="butt" d="m82.88714 248.49081l0 -27.307083" fill-rule="evenodd"/><path fill="#000000" fill-opacity="0.0" d="m152.11548 248.49081l0 -27.307083" fill-rule="evenodd"/><path stroke="#00ff00" stroke-width="2.0" stroke-linejoin="round" stroke-linecap="butt" d="m152.11548 248.49081l0 -27.307083" fill-rule="evenodd"/><path fill="#000000" fill-opacity="0.0" d="m221.01312 310.01312l0 -75.27559" fill-rule="evenodd"/><path stroke="#ffff00" stroke-width="2.0" stroke-linejoin="round" stroke-linecap="butt" d="m221.01312 310.01312l0 -75.27559" fill-rule="evenodd"/><path fill="#000000" fill-opacity="0.0" d="m290.24146 234.72704l-138.45668 0" fill-rule="evenodd"/><path stroke="#ffff00" stroke-width="2.0" stroke-linejoin="round" stroke-linecap="butt" d="m290.24146 234.72704l-138.45668 0" fill-rule="evenodd"/><path fill="#000000" fill-opacity="0.0" d="m151.78477 248.38058l0 -27.307098" fill-rule="evenodd"/><path stroke="#ffff00" stroke-width="2.0" stroke-linejoin="round" stroke-linecap="butt" d="m151.78477 248.38058l0 -27.307098" fill-rule="evenodd"/><path fill="#000000" fill-opacity="0.0" d="m290.24146 248.38058l0 -27.307098" fill-rule="evenodd"/><path stroke="#ffff00" stroke-width="2.0" stroke-linejoin="round" stroke-linecap="butt" d="m290.24146 248.38058l0 -27.307098" fill-rule="evenodd"/><path fill="#000000" fill-opacity="0.0" d="m255.6273 310.48294l-69.22835 0" fill-rule="evenodd"/><path stroke="#ffff00" stroke-width="2.0" stroke-linejoin="round" stroke-linecap="butt" d="m255.6273 310.48294l-69.22835 0" fill-rule="evenodd"/><path fill="#000000" fill-opacity="0.0" d="m186.39896 324.13647l0 -27.307068" fill-rule="evenodd"/><path stroke="#ffff00" stroke-width="2.0" stroke-linejoin="round" stroke-linecap="butt" d="m186.39896 324.13647l0 -27.307068" fill-rule="evenodd"/><path fill="#000000" fill-opacity="0.0" d="m255.6273 324.13647l0 -27.307068" fill-rule="evenodd"/><path stroke="#ffff00" stroke-width="2.0" stroke-linejoin="round" stroke-linecap="butt" d="m255.6273 324.13647l0 -27.307068" fill-rule="evenodd"/><path fill="#000000" fill-opacity="0.0" d="m117.50131 351.90814l0 -39.338593" fill-rule="evenodd"/><path stroke="#ff0000" stroke-width="2.0" stroke-linejoin="round" stroke-linecap="butt" d="m117.50131 351.90814l0 -39.338593" fill-rule="evenodd"/><path fill="#000000" fill-opacity="0.0" d="m186.72966 312.56955l-138.4567 0" fill-rule="evenodd"/><path stroke="#ff0000" stroke-width="2.0" stroke-linejoin="round" stroke-linecap="butt" d="m186.72966 312.56955l-138.4567 0" fill-rule="evenodd"/><path fill="#000000" fill-opacity="0.0" d="m48.272964 326.22308l0 -27.307068" fill-rule="evenodd"/><path stroke="#ff0000" stroke-width="2.0" stroke-linejoin="round" stroke-linecap="butt" d="m48.272964 326.22308l0 -27.307068" fill-rule="evenodd"/><path fill="#000000" fill-opacity="0.0" d="m186.72966 326.22308l0 -27.307068" fill-rule="evenodd"/><path stroke="#ff0000" stroke-width="2.0" stroke-linejoin="round" stroke-linecap="butt" d="m186.72966 326.22308l0 -27.307068" fill-rule="evenodd"/><path fill="#000000" fill-opacity="0.0" d="m28.509186 0l108.09448 0l0 53.007874l-108.09448 0z" fill-rule="evenodd"/><path fill="#000000" d="m43.05962 34.6l0 -19.078125l3.796875 0l4.515625 13.5q0.625 1.890625 0.90625 2.828125q0.328125 -1.03125 1.015625 -3.0625l4.578125 -13.265625l3.390625 0l0 19.078125l-2.4375 0l0 -15.96875l-5.546875 15.96875l-2.265625 0l-5.53125 -16.25l0 16.25l-2.421875 0zm21.111118 -6.90625q0 -3.84375 2.125 -5.6875q1.78125 -1.546875 4.34375 -1.546875q2.859375 0 4.65625 1.875q1.8125 1.859375 1.8125 5.15625q0 2.671875 -0.796875 4.203125q-0.796875 1.53125 -2.328125 2.375q-1.53125 0.84375 -3.34375 0.84375q-2.890625 0 -4.6875 -1.859375q-1.78125 -1.859375 -1.78125 -5.359375zm2.40625 0q0 2.65625 1.15625 3.984375q1.15625 1.3125 2.90625 1.3125q1.75 0 2.90625 -1.328125q1.15625 -1.328125 1.15625 -4.046875q0 -2.5625 -1.171875 -3.890625q-1.15625 -1.328125 -2.890625 -1.328125q-1.75 0 -2.90625 1.328125q-1.15625 1.3125 -1.15625 3.96875zm18.40306 4.8125l0.328125 2.0625q-0.984375 0.21875 -1.765625 0.21875q-1.265625 0 -1.96875 -0.40625q-0.703125 -0.40625 -1.0 -1.0625q-0.28125 -0.65625 -0.28125 -2.765625l0 -7.953125l-1.71875 0l0 -1.828125l1.71875 0l0 -3.421875l2.328125 -1.40625l0 4.828125l2.359375 0l0 1.828125l-2.359375 0l0 8.078125q0 1.0 0.125 1.296875q0.125 0.28125 0.40625 0.453125q0.28125 0.171875 0.796875 0.171875q0.390625 0 1.03125 -0.09375zm11.749702 -2.359375l2.421875 0.296875q-0.578125 2.125 -2.125 3.296875q-1.546875 1.171875 -3.953125 1.171875q-3.0312424 0 -4.8124924 -1.859375q-1.78125 -1.875 -1.78125 -5.25q0 -3.484375 1.796875 -5.40625q1.796875 -1.9375 4.6718674 -1.9375q2.765625 0 4.515625 1.890625q1.765625 1.890625 1.765625 5.3125q0 0.203125 -0.015625 0.625l-10.312492 0q0.140625 2.28125 1.296875 3.5q1.15625 1.203125 2.8906174 1.203125q1.28125 0 2.1875 -0.671875q0.921875 -0.6875 1.453125 -2.171875zm-7.6874924 -3.78125l7.7187424 0q-0.15625 -1.75 -0.890625 -2.625q-1.125 -1.34375 -2.90625 -1.34375q-1.6093674 0 -2.7187424 1.078125q-1.09375 1.078125 -1.203125 2.890625zm22.106178 8.234375l0 -2.03125q-1.609375 2.34375 -4.375 2.34375q-1.234375 0 -2.296875 -0.46875q-1.0625 -0.46875 -1.578125 -1.171875q-0.5 -0.71875 -0.71875 -1.75q-0.140625 -0.6875 -0.140625 -2.1875l0 -8.5625l2.34375 0l0 7.671875q0 1.828125 0.140625 2.46875q0.21875 0.921875 0.9375 1.453125q0.71875 0.53125 1.765625 0.53125q1.0625 0 1.984375 -0.53125q0.921875 -0.546875 1.296875 -1.46875q0.390625 -0.9375 0.390625 -2.71875l0 -7.40625l2.34375 0l0 13.828125l-2.09375 0zm5.746811 0l0 -13.828125l2.109375 0l0 2.09375q0.796875 -1.46875 1.484375 -1.9375q0.6875 -0.46875 1.5 -0.46875q1.1875 0 2.40625 0.765625l-0.796875 2.171875q-0.859375 -0.515625 -1.71875 -0.515625q-0.765625 0 -1.390625 0.46875q-0.609375 0.453125 -0.859375 1.28125q-0.390625 1.25 -0.390625 2.734375l0 7.234375l-2.34375 0z" fill-rule="nonzero"/><path fill="#000000" fill-opacity="0.0" d="m70.13123 333.49606l94.74015 0l0 53.007874l-94.74015 0z" fill-rule="evenodd"/><path fill="#ff0000" d="m83.887314 361.97107l2.375 -0.21875q0.171875 1.4375 0.78125 2.359375q0.625 0.90625 1.921875 1.484375q1.3125 0.5625 2.9375 0.5625q1.4375 0 2.546875 -0.421875q1.109375 -0.4375 1.640625 -1.1875q0.546875 -0.75 0.546875 -1.640625q0 -0.890625 -0.53125 -1.5625q-0.515625 -0.671875 -1.703125 -1.125q-0.765625 -0.296875 -3.40625 -0.921875q-2.625 -0.640625 -3.671875 -1.203125q-1.375 -0.71875 -2.046875 -1.765625q-0.671875 -1.0625 -0.671875 -2.375q0 -1.453125 0.8125 -2.703125q0.828125 -1.265625 2.40625 -1.90625q1.578125 -0.65625 3.5 -0.65625q2.125 0 3.734375 0.6875q1.625 0.671875 2.5 2.0q0.875 1.328125 0.9375 3.015625l-2.421875 0.1875q-0.1875 -1.8125 -1.3125 -2.734375q-1.125 -0.9375 -3.328125 -0.9375q-2.296875 0 -3.34375 0.84375q-1.046875 0.84375 -1.046875 2.03125q0 1.015625 0.75 1.6875q0.71875 0.65625 3.796875 1.359375q3.078125 0.703125 4.234375 1.21875q1.65625 0.765625 2.453125 1.953125q0.796875 1.171875 0.796875 2.703125q0 1.53125 -0.875 2.875q-0.875 1.34375 -2.515625 2.09375q-1.625 0.75 -3.671875 0.75q-2.59375 0 -4.34375 -0.75q-1.75 -0.765625 -2.75 -2.28125q-0.984375 -1.515625 -1.03125 -3.421875zm17.46701 -0.78125q0 -3.84375 2.125 -5.6875q1.78125 -1.546875 4.34375 -1.546875q2.859375 0 4.65625 1.875q1.8125 1.859375 1.8125 5.15625q0 2.671875 -0.796875 4.203125q-0.796875 1.53125 -2.328125 2.375q-1.53125 0.84375 -3.34375 0.84375q-2.890625 0 -4.6875 -1.859375q-1.78125 -1.859375 -1.78125 -5.359375zm2.40625 0q0 2.65625 1.15625 3.984375q1.15625 1.3125 2.90625 1.3125q1.75 0 2.90625 -1.328125q1.15625 -1.328125 1.15625 -4.046875q0 -2.5625 -1.171875 -3.890625q-1.15625 -1.328125 -2.890625 -1.328125q-1.75 0 -2.90625 1.328125q-1.15625 1.3125 -1.15625 3.96875zm13.262436 6.90625l0 -13.828125l2.109375 0l0 2.09375q0.796875 -1.46875 1.484375 -1.9375q0.6875 -0.46875 1.5 -0.46875q1.1875 0 2.40625 0.765625l-0.796875 2.171875q-0.859375 -0.515625 -1.71875 -0.515625q-0.765625 0 -1.390625 0.46875q-0.609375 0.453125 -0.859375 1.28125q-0.390625 1.25 -0.390625 2.734375l0 7.234375l-2.34375 0zm14.0173645 -2.09375l0.328125 2.0625q-0.984375 0.21875 -1.765625 0.21875q-1.265625 0 -1.96875 -0.40625q-0.703125 -0.40625 -1.0 -1.0625q-0.28125 -0.65625 -0.28125 -2.765625l0 -7.953125l-1.71875 0l0 -1.828125l1.71875 0l0 -3.421875l2.328125 -1.40625l0 4.828125l2.359375 0l0 1.828125l-2.359375 0l0 8.078125q0 1.0 0.125 1.296875q0.125 0.28125 0.40625 0.453125q0.28125 0.171875 0.796875 0.171875q0.390625 0 1.03125 -0.09375zm2.296585 -14.296875l0 -2.6875l2.34375 0l0 2.6875l-2.34375 0zm0 16.390625l0 -13.828125l2.34375 0l0 13.828125l-2.34375 0zm15.37529 -4.453125l2.421875 0.296875q-0.578125 2.125 -2.125 3.296875q-1.546875 1.171875 -3.953125 1.171875q-3.03125 0 -4.8125 -1.859375q-1.78125 -1.875 -1.78125 -5.25q0 -3.484375 1.796875 -5.40625q1.796875 -1.9375 4.671875 -1.9375q2.765625 0 4.515625 1.890625q1.765625 1.890625 1.765625 5.3125q0 0.203125 -0.015625 0.625l-10.3125 0q0.140625 2.28125 1.296875 3.5q1.15625 1.203125 2.890625 1.203125q1.28125 0 2.1875 -0.671875q0.921875 -0.6875 1.453125 -2.171875zm-7.6875 -3.78125l7.71875 0q-0.15625 -1.75 -0.890625 -2.625q-1.125 -1.34375 -2.90625 -1.34375q-1.609375 0 -2.71875 1.078125q-1.09375 1.078125 -1.203125 2.890625z" fill-rule="nonzero"/><path fill="#000000" fill-opacity="0.0" d="m89.13386 83.0l124.7244 0l0 53.007874l-124.7244 0z" fill-rule="evenodd"/><path fill="#000000" d="m122.60863 117.6l-2.34375 0l0 -14.921875q-0.859375 0.796875 -2.234375 1.609375q-1.359375 0.796875 -2.453125 1.203125l0 -2.265625q1.96875 -0.921875 3.4375 -2.234375q1.46875 -1.3125 2.078125 -2.546875l1.515625 0l0 19.15625zm5.996811 -5.0l2.453125 -0.203125q0.28125 1.796875 1.265625 2.703125q1.0 0.90625 2.40625 0.90625q1.6875 0 2.859375 -1.28125q1.171875 -1.28125 1.171875 -3.390625q0 -2.0 -1.125 -3.15625q-1.125 -1.15625 -2.9375 -1.15625q-1.140625 0 -2.046875 0.515625q-0.90625 0.515625 -1.4375 1.328125l-2.203125 -0.28125l1.859375 -9.8125l9.484375 0l0 2.25l-7.609375 0l-1.03125 5.125q1.71875 -1.203125 3.609375 -1.203125q2.5 0 4.203125 1.734375q1.71875 1.734375 1.71875 4.453125q0 2.59375 -1.5 4.484375q-1.84375 2.3125 -5.015625 2.3125q-2.59375 0 -4.25 -1.453125q-1.640625 -1.46875 -1.875 -3.875z" fill-rule="nonzero"/><path fill="#0000ff" d="m161.93675 101.02187l0 -2.25l12.34375 0l0 1.8125q-1.8125 1.9375 -3.609375 5.15625q-1.78125 3.21875 -2.765625 6.609375q-0.703125 2.40625 -0.890625 5.25l-2.40625 0q0.03125 -2.25 0.875 -5.4375q0.84375 -3.1875 2.421875 -6.140625q1.59375 -2.96875 3.375 -5.0l-9.34375 0zm14.668686 7.171875q0 -3.390625 0.6875 -5.453125q0.703125 -2.0625 2.078125 -3.171875q1.375 -1.125 3.453125 -1.125q1.53125 0 2.6875 0.625q1.171875 0.609375 1.921875 1.78125q0.75 1.15625 1.171875 2.828125q0.4375 1.671875 0.4375 4.515625q0 3.359375 -0.6875 5.421875q-0.6875 2.0625 -2.0625 3.1875q-1.375 1.125 -3.46875 1.125q-2.765625 0 -4.328125 -1.984375q-1.890625 -2.375 -1.890625 -7.75zm2.40625 0q0 4.6875 1.09375 6.25q1.109375 1.5625 2.71875 1.5625q1.609375 0 2.703125 -1.5625q1.109375 -1.5625 1.109375 -6.25q0 -4.71875 -1.109375 -6.265625q-1.09375 -1.546875 -2.734375 -1.546875q-1.609375 0 -2.578125 1.359375q-1.203125 1.75 -1.203125 6.453125z" fill-rule="nonzero"/><path fill="#000000" fill-opacity="0.0" d="m130.36745 152.03674l114.96063 0l0 53.007874l-114.96063 0z" fill-rule="evenodd"/><path fill="#00ff00" d="m150.1322 181.63675l2.453125 -0.203125q0.28125 1.796875 1.265625 2.703125q1.0 0.90625 2.40625 0.90625q1.6875 0 2.859375 -1.28125q1.171875 -1.28125 1.171875 -3.390625q0 -2.0 -1.125 -3.15625q-1.125 -1.15625 -2.9375 -1.15625q-1.140625 0 -2.046875 0.515625q-0.90625 0.515625 -1.4375 1.328125l-2.203125 -0.28125l1.859375 -9.8125l9.484375 0l0 2.25l-7.609375 0l-1.03125 5.125q1.71875 -1.203125 3.609375 -1.203125q2.5 0 4.203125 1.734375q1.71875 1.734375 1.71875 4.453125q0 2.59375 -1.5 4.484375q-1.84375 2.3125 -5.015625 2.3125q-2.59375 0 -4.25 -1.453125q-1.640625 -1.46875 -1.875 -3.875zm14.824936 -4.40625q0 -3.390625 0.6875 -5.453125q0.703125 -2.0625 2.078125 -3.171875q1.375 -1.125 3.453125 -1.125q1.53125 0 2.6875 0.625q1.171875 0.609375 1.921875 1.78125q0.75 1.15625 1.171875 2.828125q0.4375 1.671875 0.4375 4.515625q0 3.359375 -0.6875 5.421875q-0.6875 2.0625 -2.0625 3.1875q-1.375 1.125 -3.46875 1.125q-2.765625 0 -4.328125 -1.984375q-1.890625 -2.375 -1.890625 -7.75zm2.40625 0q0 4.6875 1.09375 6.25q1.109375 1.5625 2.71875 1.5625q1.609375 0 2.703125 -1.5625q1.109375 -1.5625 1.109375 -6.25q0 -4.71875 -1.109375 -6.265625q-1.09375 -1.546875 -2.734375 -1.546875q-1.609375 0 -2.578125 1.359375q-1.203125 1.75 -1.203125 6.453125z" fill-rule="nonzero"/><path fill="#0000ff" d="m206.96033 186.63675l-2.34375 0l0 -14.921875q-0.859375 0.796875 -2.234375 1.609375q-1.359375 0.796875 -2.453125 1.203125l0 -2.265625q1.96875 -0.921875 3.4375 -2.234375q1.46875 -1.3125 2.078125 -2.546875l1.515625 0l0 19.15625zm5.996811 -9.40625q0 -3.390625 0.6875 -5.453125q0.703125 -2.0625 2.078125 -3.171875q1.375 -1.125 3.453125 -1.125q1.53125 0 2.6875 0.625q1.171875 0.609375 1.921875 1.78125q0.75 1.15625 1.171875 2.828125q0.4375 1.671875 0.4375 4.515625q0 3.359375 -0.6875 5.421875q-0.6875 2.0625 -2.0625 3.1875q-1.375 1.125 -3.46875 1.125q-2.765625 0 -4.328125 -1.984375q-1.890625 -2.375 -1.890625 -7.75zm2.40625 0q0 4.6875 1.09375 6.25q1.109375 1.5625 2.71875 1.5625q1.609375 0 2.703125 -1.5625q1.109375 -1.5625 1.109375 -6.25q0 -4.71875 -1.109375 -6.265625q-1.09375 -1.546875 -2.734375 -1.546875q-1.609375 0 -2.578125 1.359375q-1.203125 1.75 -1.203125 6.453125z" fill-rule="nonzero"/><path fill="#000000" fill-opacity="0.0" d="m91.62205 230.48032l119.748024 0l0 53.007874l-119.748024 0z" fill-rule="evenodd"/><path fill="#00ff00" d="m122.60863 265.08032l-2.34375 0l0 -14.92189q-0.859375 0.796875 -2.234375 1.609375q-1.359375 0.796875 -2.453125 1.203125l0 -2.265625q1.96875 -0.921875 3.4375 -2.234375q1.46875 -1.3125 2.078125 -2.546875l1.515625 0l0 19.156265zm5.996811 -9.406265q0 -3.390625 0.6875 -5.453125q0.703125 -2.0625 2.078125 -3.171875q1.375 -1.125 3.453125 -1.125q1.53125 0 2.6875 0.625q1.171875 0.609375 1.921875 1.78125q0.75 1.15625 1.171875 2.828125q0.4375 1.671875 0.4375 4.515625q0 3.3593903 -0.6875 5.4218903q-0.6875 2.0625 -2.0625 3.1875q-1.375 1.125 -3.46875 1.125q-2.765625 0 -4.328125 -1.984375q-1.890625 -2.375 -1.890625 -7.7500153zm2.40625 0q0 4.6875153 1.09375 6.2500153q1.109375 1.5625 2.71875 1.5625q1.609375 0 2.703125 -1.5625q1.109375 -1.5625 1.109375 -6.2500153q0 -4.71875 -1.109375 -6.265625q-1.09375 -1.546875 -2.734375 -1.546875q-1.609375 0 -2.578125 1.359375q-1.203125 1.75 -1.203125 6.453125z" fill-rule="nonzero"/><path fill="#ffff00" d="m161.79613 260.04907l2.34375 -0.3125q0.390625 1.984375 1.359375 2.875q0.984375 0.875 2.375 0.875q1.640625 0 2.78125 -1.140625q1.140625 -1.15625 1.140625 -2.84375q0 -1.625 -1.0625 -2.671875q-1.046875 -1.0468903 -2.671875 -1.0468903q-0.65625 0 -1.65625 0.26564026l0.265625 -2.0625153q0.234375 0.03125 0.375 0.03125q1.5 0 2.6875 -0.78125q1.203125 -0.78125 1.203125 -2.40625q0 -1.296875 -0.875 -2.140625q-0.859375 -0.84375 -2.25 -0.84375q-1.359375 0 -2.28125 0.859375q-0.90625 0.859375 -1.15625 2.578125l-2.34375 -0.421875q0.421875 -2.34375 1.9375 -3.640625q1.53125 -1.296875 3.796875 -1.296875q1.5625 0 2.875 0.671875q1.3125 0.671875 2.0 1.828125q0.703125 1.15625 0.703125 2.453125q0 1.234375 -0.671875 2.25q-0.65625 1.015625 -1.953125 1.625q1.6875 0.390625 2.625 1.6250153q0.9375 1.21875 0.9375 3.0625q0 2.5 -1.828125 4.25q-1.8125 1.734375 -4.59375 1.734375q-2.515625 0 -4.171875 -1.5q-1.65625 -1.5 -1.890625 -3.875zm14.809311 0.03125l2.453125 -0.203125q0.28125 1.796875 1.265625 2.703125q1.0 0.90625 2.40625 0.90625q1.6875 0 2.859375 -1.28125q1.171875 -1.28125 1.171875 -3.390625q0 -2.0 -1.125 -3.1562653q-1.125 -1.15625 -2.9375 -1.15625q-1.140625 0 -2.046875 0.515625q-0.90625 0.515625 -1.4375 1.3281403l-2.203125 -0.28125l1.859375 -9.812515l9.484375 0l0 2.25l-7.609375 0l-1.03125 5.125q1.71875 -1.203125 3.609375 -1.203125q2.5 0 4.203125 1.734375q1.71875 1.734375 1.71875 4.4531403q0 2.59375 -1.5 4.484375q-1.84375 2.3125 -5.015625 2.3125q-2.59375 0 -4.25 -1.453125q-1.640625 -1.46875 -1.875 -3.875z" fill-rule="nonzero"/><path fill="#000000" fill-opacity="0.0" d="m125.66404 264.4882l108.09449 0l0 53.007874l-108.09449 0z" fill-rule="evenodd"/><path fill="#ff0000" d="m149.49573 299.0882l0 -4.5625l-8.265625 0l0 -2.15625l8.703125 -12.359375l1.90625 0l0 12.359375l2.578125 0l0 2.15625l-2.578125 0l0 4.5625l-2.34375 0zm0 -6.71875l0 -8.59375l-5.96875 8.59375l5.96875 0zm16.15306 6.71875l-2.34375 0l0 -14.921875q-0.859375 0.796875 -2.234375 1.609375q-1.359375 0.796875 -2.453125 1.203125l0 -2.265625q1.96875 -0.921875 3.4375 -2.234375q1.46875 -1.3125 2.078125 -2.546875l1.515625 0l0 19.15625z" fill-rule="nonzero"/><path fill="#ffff00" d="m198.82385 299.0882l-2.34375 0l0 -14.921875q-0.859375 0.796875 -2.234375 1.609375q-1.359375 0.796875 -2.453125 1.203125l0 -2.265625q1.96875 -0.921875 3.4375 -2.234375q1.46875 -1.3125 2.078125 -2.546875l1.515625 0l0 19.15625zm6.153061 -16.578125l0 -2.25l12.34375 0l0 1.8125q-1.8125 1.9375 -3.609375 5.15625q-1.78125 3.21875 -2.765625 6.609375q-0.703125 2.40625 -0.890625 5.25l-2.40625 0q0.03125 -2.25 0.875 -5.4375q0.84375 -3.1875 2.421875 -6.140625q1.59375 -2.96875 3.375 -5.0l-9.34375 0z" fill-rule="nonzero"/></g></svg>